<svg xmlns="http://www.w3.org/2000/svg" width="135" height="40" viewBox="0 0 135 40">
  <g fill="none">
    <rect width="135" height="40" fill="#000" rx="5"/>
    <path fill="#A6A6A6" d="M130 .8c2.3196 0 4.2 1.8804 4.2 4.2v30c0 2.3196-1.8804 4.2-4.2 4.2H5C2.6804 39.2.8 37.3196.8 35V5C.8 2.6804 2.6804.8 5 .8h125zm0-.8H5C2.23858 0 0 2.23858 0 5v30c0 2.76142 2.23858 5 5 5h125c2.76142 0 5-2.23858 5-5V5c0-2.76142-2.23858-5-5-5z"/>
    <path fill="#FFF" stroke="#FFF" stroke-width=".2" d="M47.42 10.24c.03435.74123-.23673 1.46413-.75 2-.57355.5958-1.37352.91943-2.2.89-1.26766-.00992-2.40585-.77878-2.8883-1.9511-.48246-1.1723-.21516-2.51958.6783-3.4189.58053-.59267 1.38058-.91848 2.21-.9.42276-.0014.84134.08367 1.23.25.36185.14595.68398.37556.94.67l-.53.53c-.40465-.48132-1.01212-.7443-1.64-.71-.63115-.0031-1.23632.2511-1.67596.70394C42.3544 8.7568 42.11824 9.36922 42.14 10c-.0134.9532.54798 1.82084 1.42293 2.19926.87496.37842 1.89166.1933 2.57707-.46926.3077-.33346.48518-.7665.5-1.22h-2.17v-.72h2.91c.02667.1485.04006.2991.04.45zM52 7.74h-2.7v1.9h2.46v.72H49.3v1.9H52V13h-3.5V7H52v.74zM55.28 13h-.77V7.74h-1.68V7H57v.74h-1.72V13zm4.66 0V7h.77v6h-.77zm4.19 0h-.77V7.74h-1.68V7h4.12v.74h-1.67V13zm9.48-.78c-1.217 1.21023-3.183 1.21023-4.4 0-1.17973-1.24877-1.17973-3.20123 0-4.45.582-.58625 1.37392-.91597 2.2-.91597.82608 0 1.618.32972 2.2.91597 1.18477 1.24676 1.18477 3.20324 0 4.45zm-3.83-.5c.90132.89757 2.35868.89757 3.26 0 .8852-.97583.8852-2.46417 0-3.44-.90132-.89757-2.35868-.89757-3.26 0-.8852.97583-.8852 2.46417 0 3.44zm5.8 1.28V7h.94l2.92 4.67V7h.77v6h-.8l-3.05-4.89V13h-.78z"/>
    <path fill="#FFF" d="M68.14 21.75c-2.34458.01103-4.23733 1.91868-4.22998 4.26327.00735 2.3446 1.91202 4.24034 4.25662 4.23668C70.51124 30.2463 72.40997 28.3446 72.41 26c.01647-1.13563-.42877-2.2293-1.23374-3.0305-.80498-.8012-1.90072-1.2413-3.03626-1.2195zm0 6.83c-1.05677.0739-2.05133-.5057-2.50798-1.46156-.45665-.95588-.28258-2.09376.43895-2.8694.72153-.77565 1.84387-1.0314 2.83022-.64496.9863.38645 1.6362 1.33657 1.6388 2.39592.0325.66267-.204 1.3104-.6559 1.79618-.4519.48578-1.08086.76844-1.74415.78382zm-9.31-6.83c-2.3459.00552-4.24367 1.91075-4.24 4.25665.00368 2.3459 1.90742 4.24517 4.25333 4.24334C61.18923 30.2481 63.09 28.3459 63.09 26c.01647-1.13563-.42877-2.2293-1.23374-3.0305-.80498-.8012-1.90072-1.2413-3.03626-1.2195h.01zm0 6.83c-1.05732.07807-2.05478-.49863-2.51465-1.4539-.45987-.95528-.28853-2.09464.43196-2.8724.7205-.77777 1.8435-1.0356 2.8311-.65.9876.3856 1.63877 1.3361 1.64165 2.3963.03255.66267-.20396 1.3104-.65585 1.79618-.4519.48578-1.08086.76844-1.74415.78382h.01zm-11.09-5.52v1.8h4.32c-.06774.8478-.42016 1.6478-1 2.27-.87398.89022-2.08346 1.36966-3.33 1.32-2.65097 0-4.8-2.14903-4.8-4.8 0-2.65097 2.14903-4.8 4.8-4.8 1.2178-.01986 2.39376.44405 3.27 1.29l1.27-1.27c-1.19508-1.21014-2.82928-1.88475-4.53-1.87-2.42104-.09422-4.6996 1.14367-5.93815 3.22606-1.23854 2.08238-1.23854 4.6755 0 6.75788 1.23854 2.0824 3.5171 3.32028 5.93815 3.22606 1.73176.07825 3.41274-.59632 4.61-1.85 1.04768-1.15108 1.60704-2.66424 1.56-4.22.00323-.379-.03026-.75745-.1-1.13l-6.07.05zm45.31 1.4c-.53392-1.5708-1.98207-2.64895-3.64-2.71-1.10564-.00216-2.16285.4534-2.92062 1.25853-.75777.80513-1.14848 1.888-1.07938 2.99147-.02456 1.1293.41116 2.22003 1.20705 3.02157.7959.80155 1.8835 1.245 3.01295 1.22843 1.42086.00766 2.75064-.69855 3.54-1.88l-1.45-1c-.44025.73394-1.23414 1.18217-2.09 1.18-.8864.0338-1.70336-.4778-2.06-1.29l5.69-2.35-.21-.45zm-5.8 1.42c-.04095-.62484.17133-1.23985.58897-1.7064.41764-.46656 1.0055-.74538 1.63103-.7736.65937-.04345 1.28107.31068 1.58.9l-3.8 1.58zM82.63 30h1.87V17.5h-1.87V30zm-3.06-7.3h-.07c-.57004-.63732-1.38494-1.00112-2.24-1-2.26985.11007-4.05366 1.98248-4.05366 4.255s1.7838 4.14493 4.05366 4.255c.85783.01442 1.67802-.35173 2.24-1h.06v.61c0 1.63-.87 2.5-2.27 2.5-.9537-.02232-1.79927-.61897-2.14-1.51l-1.63.68c.62768 1.5268 2.11923 2.51986 3.77 2.51 2.19 0 4-1.29 4-4.43V22h-1.72v.7zm-2.14 5.88c-1.3371-.11784-2.36262-1.2377-2.36262-2.58s1.0255-2.46216 2.36262-2.58c.64612.03316 1.2515.32577 1.67885.8115.42736.48572.64052 1.12342.59115 1.7685.05513.64805-.15734 1.29043-.58803 1.7778-.4307.48734-1.04206.7772-1.69197.8022h.01zm24.38-11.08h-4.47V30h1.87v-4.74h2.61c1.45268.10436 2.84197-.6115 3.60013-1.85503.75816-1.24353.75816-2.8064 0-4.04994-.75816-1.24354-2.14745-1.9594-3.60013-1.85503h-.01zm0 6H99.2v-4.26h2.65c1.18465 0 2.145.96035 2.145 2.145s-.96035 2.145-2.145 2.145l-.04-.03zm11.53-1.8c-1.3913-.08316-2.6993.6671-3.33 1.91l1.66.69c.3344-.61633 1.00113-.97714 1.7-.92.47953-.056.96145.08297 1.33753.3857.37607.30275.61477.74387.66247 1.2243v.13c-.6006-.318-1.2704-.48287-1.95-.48-1.79 0-3.6 1-3.6 2.81.0357.7797.38524 1.51183.96913 2.0298.5839.51797 1.35247.77773 2.13087.7202.95923.06888 1.87957-.3913 2.4-1.2h.06v1h1.8v-4.81c0-2.19-1.66-3.46-3.79-3.46l-.05-.03zm-.23 6.85c-.61 0-1.46-.31-1.46-1.06 0-1 1.06-1.33 2-1.33.59404-.01466 1.18113.1304 1.7.42-.1293 1.11942-1.06348 1.97254-2.19 2l-.05-.03zM123.74 22l-2.14 5.42h-.06L119.32 22h-2l3.33 7.58-1.9 4.21h1.95L125.82 22h-2.08zm-16.81 8h1.87V17.5h-1.87V30z"/>
    <path fill="#EB3131" d="m20.717 19.424-10.647 11.3.002.007a2.874 2.874 0 0 0 4.236 1.734l.034-.02 11.984-6.915-5.609-6.106Z"/>
    <path fill="#F6B60B" d="m31.488 17.5-.01-.007-5.174-3-5.829 5.188 5.85 5.848 5.146-2.969a2.88 2.88 0 0 0 .017-5.06Z"/>
    <path fill="#5778C5" d="M10.07 9.277a2.827 2.827 0 0 0-.098.74v19.968c0 .256.034.504.099.74l11.012-11.012L10.07 9.277Z"/>
    <path fill="#3BAD49" d="m20.796 20.001 5.51-5.509-11.97-6.94a2.878 2.878 0 0 0-4.265 1.722l-.001.003 10.726 10.724Z"/>
    <path fill="#000" d="M27 24.13l-14.49 8.25c-.59296.44334-1.40704.44334-2 0l-.07.07.07.07c.59185.44668 1.40815.44668 2 0l14.61-8.3-.12-.09z" opacity=".2"/>
    <path fill="#000" d="M10.44 32.32c-.32593-.3911-.49045-.8918-.46-1.4v.15c-.03045.5082.13406 1.0089.46 1.4l.07-.07-.07-.08zM32 21.3l-5 2.83.09.09L32 21.44c.56707-.2664.94847-.8156 1-1.44-.11397.56484-.4833 1.04496-1 1.3z" opacity=".12"/>
    <path fill="#FFF" d="M12.51 7.62L32 18.7c.5167.25504.88603.73516 1 1.3-.05153-.6244-.43293-1.1736-1-1.44L12.51 7.48c-1.4-.79-2.54-.13-2.54 1.47v.15c.03-1.61 1.15-2.27 2.54-1.48z" opacity=".25"/>
  </g>
</svg>
