<svg xmlns="http://www.w3.org/2000/svg" viewBox="0 0 800 600">
  <defs>
    <linearGradient id="grad1" x1="0%" y1="0%" x2="100%" y2="100%">
      <stop offset="0%" style="stop-color:#e0e7ff;stop-opacity:1" />
      <stop offset="100%" style="stop-color:#c7d2fe;stop-opacity:1" />
    </linearGradient>
    <linearGradient id="grad2" x1="0%" y1="0%" x2="100%" y2="0%">
      <stop offset="0%" style="stop-color:#4f46e5;stop-opacity:1" />
      <stop offset="100%" style="stop-color:#818cf8;stop-opacity:1" />
    </linearGradient>
  </defs>
  <rect width="800" height="600" fill="url(#grad1)" />
  <g transform="translate(400, 300)">
    <path d="M-250,150 Q-250,50 -150,50 H150 Q250,50 250,150 V200 H-250 Z" fill="#fff" stroke="#e0e7ff" stroke-width="10" />
    <path d="M-250,-50 Q-250,-150 -150,-150 H150 Q250,-150 250,-50 V0 H-250 Z" fill="#fff" stroke="#e0e7ff" stroke-width="10" transform="translate(0, -50)"/>
    <rect x="-220" y="-130" width="440" height="100" rx="10" fill="#f3f4f6" transform="translate(0, -50)" />
    <circle cx="-180" cy="-80" r="15" fill="#ddd" transform="translate(0, -50)"/>
    <rect x="-140" y="-90" width="300" height="20" rx="5" fill="#ddd" transform="translate(0, -50)"/>
    
    <rect x="-220" y="80" width="440" height="100" rx="10" fill="#f3f4f6" />
    <circle cx="-180" cy="130" r="15" fill="url(#grad2)"/>
    <rect x="-140" y="120" width="300" height="20" rx="5" fill="#ddd"/>

    <line x1="-150" y1="-50" x2="150" y2="-50" stroke="#e5e7eb" stroke-width="4" stroke-dasharray="10 10"/>

    <g transform="translate(200, -100)">
        <path d="M 0 0 C 20 0 40 20 40 40 L 40 60 C 40 80 20 100 0 100 L -20 100 C -40 100 -60 80 -60 60 L -60 40 C -60 20 -40 0 0 0 Z" fill="url(#grad2)" />
        <path d="M 0 20 L 0 60 M -20 40 L 20 40" stroke="#fff" stroke-width="8" stroke-linecap="round"/>
    </g>
  </g>
</svg>
